<svg xmlns="http://www.w3.org/2000/svg" xmlns:xlink="http://www.w3.org/1999/xlink" version="1.1" x="0px" y="0px" viewBox="0 0 64 64" enable-background="new 0 0 64 64" xml:space="preserve" preserveAspectRatio="none" width="100%" height="100%" class="" fill="rgba(217, 217, 217, 1)"><g><path d="M52.152,0H11.848C5.332,0,0,4.952,0,11.005v41.991C0,59.049,5.332,64,11.848,64h40.304C58.668,64,64,59.049,64,52.996   V11.005C64,4.952,58.668,0,52.152,0z M61.037,52.996c0,4.55-3.986,8.253-8.885,8.253H11.848c-4.899,0-8.885-3.703-8.885-8.253   V11.005c0-4.55,3.986-8.253,8.885-8.253h40.304c4.898,0,8.885,3.703,8.885,8.253V52.996z"></path><path d="M52.152,6.053H11.848c-2.94,0-5.333,2.223-5.333,4.952v8.636h50.969v-8.636C57.484,8.275,55.092,6.053,52.152,6.053z"></path><path d="M6.516,41.714v11.282c0,2.729,2.393,4.952,5.333,4.952h18.373V41.714H6.516z M25.702,51.047h-5.938v5.807h-2.787v-5.807   h-5.941v-2.48h5.941v-5.756h2.787v5.756h5.938V51.047z"></path><path d="M33.775,22.942v35.006h18.377c2.939,0,5.332-2.223,5.332-4.952V22.942H33.775z M52.961,44.405H38.299v-2.454h14.662V44.405   z M52.961,38.941H38.299v-2.457h14.662V38.941z"></path><path d="M6.516,22.942v15.471h23.706V22.942H6.516z M22.09,32.01h-7.443v-2.665h7.443V32.01z"></path></g></svg>
