<svg xmlns="http://www.w3.org/2000/svg" xmlns:xlink="http://www.w3.org/1999/xlink" version="1.1" x="0px" y="0px" viewBox="0 0 48 48" enable-background="new 0 0 48 48" xml:space="preserve" preserveAspectRatio="none" width="100%" height="100%" class="" fill="#496772"><g><path d="M27,38.5c0-5.8,4.3-10.5,9.8-11.4c-1.8-1.9-4.3-3.1-7-3.3l-7,11.7L22,27.9l1.4-4h-7.1l1.4,4l-0.7,7.7l-7-11.7   C4.5,24.3,0,28.9,0,34.6v9C0,46.1,1.9,48,4.3,48h27.7C29,45.9,27,42.5,27,38.5z"></path><path d="M19.9,20.7c4.9,0,8.9-6.9,8.9-11.8S24.9,0,19.9,0S11,4,11,8.9S15,20.7,19.9,20.7z"></path><path d="M38.5,29c-5.2,0-9.5,4.2-9.5,9.5c0,5.2,4.2,9.5,9.5,9.5c5.2,0,9.5-4.2,9.5-9.5C48,33.3,43.8,29,38.5,29z M41.1,41.8   c-0.5,0.4-1.1,0.7-1.8,0.8v0.8H38v-0.9c-1-0.2-2-0.6-2.8-1.4l1.1-1.4c0.6,0.5,1.2,0.9,1.7,1v-1.8c-0.8-0.2-1.5-0.5-1.8-0.9   c-0.4-0.4-0.6-0.9-0.6-1.6c0-0.7,0.2-1.2,0.7-1.7c0.4-0.4,1-0.7,1.8-0.8v-0.6h1.3v0.6c0.8,0.1,1.6,0.4,2.4,1l-1,1.4   c-0.5-0.4-1-0.6-1.4-0.7v1.7c0.9,0.2,1.5,0.5,1.9,0.9c0.4,0.4,0.6,0.9,0.6,1.6C41.8,40.8,41.6,41.4,41.1,41.8z"></path><path d="M39.3,39.5v1.5c0.4-0.1,0.6-0.4,0.6-0.7c0-0.2,0-0.3-0.1-0.4C39.7,39.7,39.5,39.6,39.3,39.5z"></path><path d="M37.5,36.5c0,0.3,0.2,0.6,0.5,0.7v-1.4C37.7,36,37.5,36.2,37.5,36.5z"></path></g></svg>
