<svg xmlns="http://www.w3.org/2000/svg" xmlns:xlink="http://www.w3.org/1999/xlink" version="1.1" x="0px" y="0px" viewBox="0 0 58.001 60" style="enable-background:new 0 0 58.001 60;" xml:space="preserve" preserveAspectRatio="none" width="100%" height="100%" class="" fill="rgba(217, 217, 217, 1)"><g><path d="M37.687,20.797l0.126-0.755C37.937,19.295,38,18.533,38,17.777C38,10.18,31.82,4,24.223,4H13.777C6.18,4,0,10.18,0,17.777   c0,0.756,0.063,1.518,0.188,2.266l0.126,0.755C1.091,20.298,2.009,20,3,20h1.101c0.319-1.565,1.379-2.854,2.789-3.516   C6.342,15.799,6,14.943,6,14c0-2.206,1.794-4,4-4v2c-1.103,0-2,0.897-2,2s0.897,2,2,2h19c1.654,0,3-1.346,3-3s-1.346-3-3-3   c-0.551,0-1,0.449-1,1s0.449,1,1,1h1v2h-1c-1.654,0-3-1.346-3-3s1.346-3,3-3c2.757,0,5,2.243,5,5c0,1.641-0.806,3.088-2.031,4   c0.97,0.722,1.68,1.774,1.93,3H35C35.99,20,36.909,20.298,37.687,20.797z"></path><rect x="36" y="42" width="2" height="2"></rect><path d="M39,52h-3.171c-0.267,0-0.519,0.104-0.708,0.293L34,53.414V58h5c0.551,0,1-0.449,1-1v-4C40,52.449,39.551,52,39,52z"></path><path d="M35,22h-1v2.132l1.445-0.964l1.109,1.664L34,26.535V28h1c1.654,0,3-1.346,3-3S36.654,22,35,22z"></path><rect x="36" y="46" width="2" height="4"></rect><path d="M25.382,50l0.297-0.594c0.21-0.42,0.321-0.89,0.321-1.359c0-1.35-0.906-2.551-2.204-2.922l-2.548-0.728   C21.716,45.157,22,46.043,22,47v3H25.382z"></path><path d="M20,52v-5c0-1.654-1.346-3-3-3s-3,1.346-3,3v8c0,1.654,1.346,3,3,3h15.001L32,52H20z"></path><path d="M9,28h4c1.654,0,3-1.346,3-3s-1.346-3-3-3H9c-1.654,0-3,1.346-3,3S7.346,28,9,28z M11,24c0.552,0,1,0.448,1,1   c0,0.552-0.448,1-1,1s-1-0.448-1-1C10,24.448,10.448,24,11,24z"></path><path d="M24.223,2c0.841,0,1.66,0.085,2.465,0.212C25.588,0.846,23.917,0,22.092,0h-6.184c-1.826,0-3.497,0.846-4.596,2.212   C12.117,2.085,12.936,2,13.777,2H24.223z"></path><path d="M0,25c0,1.654,1.346,3,3,3h1v-1.465l-2.555-1.703l1.109-1.664L4,24.132V22H3C1.346,22,0,23.346,0,25z"></path><path d="M25,22c-1.654,0-3,1.346-3,3s1.346,3,3,3h4c1.654,0,3-1.346,3-3s-1.346-3-3-3H25z M27,26c-0.552,0-1-0.448-1-1   c0-0.552,0.448-1,1-1s1,0.448,1,1C28,25.552,27.552,26,27,26z"></path><path d="M32,21c0-1.654-1.346-3-3-3H9c-1.654,0-3,1.346-3,3v0.026C6.838,20.391,7.87,20,9,20h4c1.85,0,3.451,1.022,4.315,2.52   C17.796,22.192,18.376,22,19,22s1.204,0.192,1.685,0.52C21.549,21.022,23.15,20,25,20h4c1.13,0,2.162,0.391,3,1.026V21z"></path><path d="M23,42c4.962,0,9-4.038,9-9v-4.026C31.162,29.609,30.13,30,29,30h-4c-2.757,0-5-2.243-5-5c0-0.551-0.449-1-1-1   s-1,0.449-1,1c0,2.757-2.243,5-5,5H9c-1.13,0-2.162-0.391-3-1.026V33c0,4.962,4.038,9,9,9H23z M16,36h6c1.103,0,2-0.897,2-2h2   c0,2.206-1.794,4-4,4h-6V36z"></path><path d="M58,4H40v26h18.001L58,4z M43,15h3v3h-3V15z M50,22h-2v-2h2V22z M50,18h-2v-3h2V18z M43,20h3v2h-3V20z M43,27v-3h3v3H43z    M48,27v-3h2v3H48z M55,27h-3v-7h3V27z M55,18h-3v-3h3V18z M55,11H43V7h12V11z"></path><rect x="46" y="58" width="6" height="2"></rect><rect x="44" y="55" width="10" height="2"></rect><rect x="44" y="51" width="10" height="2"></rect><rect x="44" y="42" width="2" height="2"></rect><rect x="48" y="42" width="2" height="2"></rect><rect x="52" y="42" width="2" height="2"></rect></g></svg>
