<svg xmlns="http://www.w3.org/2000/svg" viewBox="0 0 64 64" x="0px" y="0px" preserveAspectRatio="none" width="100%" height="100%" class="" fill="rgba(255, 255, 255, 1)"><title>affiliate copy</title><g><path d="M13.5,26.75A7.5,7.5,0,1,0,6,19.25,7.5,7.5,0,0,0,13.5,26.75Zm0-6.5a2.49,2.49,0,0,1-.5-4.94v-.06a1,1,0,0,1,2,0,1,1,0,0,1,0,2H13.5a.5.5,0,0,0-.5.5.5.5,0,0,0,.5.5A2.49,2.49,0,0,1,15,22.74v.51a1,1,0,0,1-2,0H12a1,1,0,0,1,0-2h1.5a.5.5,0,0,0,.5-.5A.5.5,0,0,0,13.5,20.25Z"></path><path d="M50.5,26.75a7.5,7.5,0,1,0-7.5-7.5A7.5,7.5,0,0,0,50.5,26.75Zm0-6.5a2.49,2.49,0,0,1-.5-4.94v-.06a1,1,0,0,1,2,0,1,1,0,0,1,0,2H50.5a.5.5,0,0,0-.5.5.5.5,0,0,0,.5.5A2.49,2.49,0,0,1,52,22.74v.51a1,1,0,0,1-2,0H49a1,1,0,0,1,0-2h1.5a.5.5,0,0,0,.5-.5A.5.5,0,0,0,50.5,20.25Z"></path><path d="M57.9,33.94l-5.36-5.41a9.73,9.73,0,0,1-2,.22,9.52,9.52,0,0,1-8.82-6L39.45,25a1,1,0,0,0,0,1.41l10,10.07,1.85,1.87,1.1,1.1a1,1,0,0,0,1.42,0l4.11-4.15A1,1,0,0,0,57.9,33.94Z"></path><path d="M49.15,39.09l-9.28-9.38-2.49,2.51a4.13,4.13,0,0,1-3.16,1.13,1.14,1.14,0,0,0-.8.33L30.3,36.83a1.7,1.7,0,0,0-.5,1.25,1.72,1.72,0,0,0,1.71,1.72,1.68,1.68,0,0,0,1.19-.5,3,3,0,0,1,4.3,0l.06.07a.79.79,0,0,1,.27.1A3.88,3.88,0,0,0,40,38.62a1,1,0,0,1,1.41,0,1,1,0,0,1,0,1.42A5,5,0,0,1,39,41.29l6,6,.47-1.88a1.7,1.7,0,0,0-.2-1.3,1,1,0,0,1,.14-1.23Z"></path><path d="M31.25,55.33a1,1,0,0,0-1.33,0l-.56.57L28.27,57h0a1,1,0,0,0,0,1.37l.25.24a.94.94,0,0,0,1.32,0l1.66-1.67a1,1,0,0,0,0-1.37Z"></path><path d="M29.13,51.91l-.24-.24a1,1,0,0,0-.67-.28.92.92,0,0,0-.66.28L25.28,54a1,1,0,0,0,0,1.37l.24.24a.94.94,0,0,0,1.32,0l2.29-2.31A1,1,0,0,0,29.13,51.91Z"></path><path d="M26.77,49.63a1,1,0,0,0,0-1.37L26.53,48a1,1,0,0,0-1.33,0l-1,1-1.94,2a1,1,0,0,0,0,1.37l.24.24a.94.94,0,0,0,1.32,0l2.29-2.31Z"></path><path d="M23.15,45.87l-.24-.24a.92.92,0,0,0-.66-.28,1,1,0,0,0-.67.28L19.3,47.94a1,1,0,0,0,0,1.37l.24.24a1,1,0,0,0,1.33,0l2.28-2.31A1,1,0,0,0,23.15,45.87Z"></path><path d="M35.58,40.71a1,1,0,0,0-1.46,0,3.72,3.72,0,0,1-5.24-5.29l.75-.76a.78.78,0,0,0-.66-.15,1,1,0,0,1-1-.26l-3.87-3.91-4,4-5.28,5.35,3.88,3.92a1,1,0,0,1,.26,1,.79.79,0,0,0,.13.67l1-1.05a2.94,2.94,0,0,1,2.09-.87,2.87,2.87,0,0,1,2.08.88l.24.24a2.84,2.84,0,0,1,.75,1.35,3,3,0,0,1,2.63.79l.24.24a3,3,0,0,1,.8,2.68,2.79,2.79,0,0,1,1.32.73l.24.25a3,3,0,0,1,.8,2.67,2.9,2.9,0,0,1,1.32.74l.24.24a3,3,0,0,1,0,4.18l-.45.45.12.12a.78.78,0,0,0,1,.08l2.2-1.62-1.67-1.69a1,1,0,0,1,1.42-1.4l1.88,1.89,1.28-.94-1.43-1.45a1,1,0,1,1,1.42-1.41L40.33,54l1.29-.94-1.21-1.22a1,1,0,0,1,1.42-1.41l1.41,1.43L44.51,51a.76.76,0,0,0,.32-.58.8.8,0,0,0-.22-.63Z"></path><path d="M23.43,28.21l1.12-1.13a1,1,0,0,0,0-1.41l-2.42-2.44A9.53,9.53,0,0,1,12,28.63L6.1,34.57A1,1,0,0,0,6.1,36l4.11,4.15a1,1,0,0,0,1.42,0L12.73,39l10.69-10.8Z"></path><path d="M32,19.85a7.5,7.5,0,1,0-7.5-7.5A7.5,7.5,0,0,0,32,19.85Zm0-8.33a1.67,1.67,0,1,1,1.67-1.67A1.67,1.67,0,0,1,32,11.52a3.33,3.33,0,0,1,3.33,3.33H28.67A3.33,3.33,0,0,1,32,11.52Z"></path></g></svg>
