<svg xmlns="http://www.w3.org/2000/svg" xmlns:xlink="http://www.w3.org/1999/xlink" version="1.0" x="0px" y="0px" viewBox="0 0 32 32" enable-background="new 0 0 32 32" xml:space="preserve" preserveAspectRatio="none" width="100%" height="100%" class="" fill="rgba(132, 132, 132, 1)"><g><path d="M16.565,9.265l6.799,6.745l-6.799,6.743c-0.746,0.746-0.746,1.953,0,2.699c0.754,0.745,1.972,0.745,2.726,0l8.154-8.094   c0.746-0.746,0.746-1.954,0-2.698l-8.154-8.095c-0.754-0.746-1.972-0.744-2.726,0C15.819,7.312,15.819,8.519,16.565,9.265z"></path><path d="M15.448,17.358c0.746-0.746,0.746-1.954,0-2.698L7.293,6.565c-0.754-0.746-1.973-0.744-2.727,0   c-0.746,0.746-0.746,1.953,0,2.699l6.8,6.745l-6.8,6.743c-0.746,0.746-0.746,1.953,0,2.699c0.754,0.745,1.973,0.745,2.727,0   L15.448,17.358z"></path></g></svg>
