<svg xmlns="http://www.w3.org/2000/svg" xmlns:xlink="http://www.w3.org/1999/xlink" version="1.1" x="0px" y="0px" viewBox="0 0 144.083 144" enable-background="new 0 0 144.083 144" xml:space="preserve" preserveAspectRatio="none" width="100%" height="100%" class=""><rect x="55.679" y="60.205" width="4" height="4.735"></rect><path d="M80.116,65.941c0-3.469-2.879-6.314-6.316-6.314c-3.468,0-6.314,2.811-6.314,6.314c0,3.54,2.846,6.314,6.314,6.314  C77.237,72.255,80.116,69.446,80.116,65.941z M71.06,65.941c0-1.526,1.249-2.741,2.74-2.741c1.492,0,2.74,1.214,2.74,2.741  c0,1.527-1.248,2.741-2.74,2.741C72.309,68.682,71.06,67.468,71.06,65.941z"></path><rect x="55.679" y="79.145" width="4" height="4.734"></rect><rect x="67.562" y="70.284" transform="matrix(0.4696 -0.8829 0.8829 0.4696 -20.4141 110.5883)" width="28.544" height="4"></rect><rect x="55.679" y="69.674" width="4" height="4.734"></rect><path d="M90.096,72.048c-3.469-0.013-6.326,2.788-6.338,6.292c-0.014,3.539,2.822,6.326,6.293,6.34  c3.436,0.012,6.324-2.789,6.338-6.293C96.401,74.916,93.532,72.06,90.096,72.048z M90.073,81.105c-1.49,0-2.74-1.215-2.74-2.742  s1.25-2.74,2.74-2.74c1.492,0,2.742,1.213,2.742,2.74S91.565,81.105,90.073,81.105z"></path><path d="M72.04,14.166C40.1,14.166,14.207,40.059,14.207,72c0,31.94,25.893,57.834,57.833,57.834  c31.941,0,57.835-25.895,57.835-57.834C129.875,40.059,103.981,14.166,72.04,14.166z M106.159,85.496  c0,3.102-2.877,5.617-6.424,5.617H59.679v-2.5h-4v2.5H44.348c-3.548,0-6.425-2.516-6.425-5.617v-26.91  c0-3.101,2.877-5.616,6.425-5.616h11.331v2.5h4v-2.5h40.056c3.547,0,6.424,2.515,6.424,5.616V85.496z"></path></svg>
