<svg xmlns="http://www.w3.org/2000/svg" xmlns:xlink="http://www.w3.org/1999/xlink" version="1.1" x="0px" y="0px" viewBox="0 0 100 100" enable-background="new 0 0 100 100" xml:space="preserve" preserveAspectRatio="none" height="80px" class=""><g><style>svg{fill:#456b78}</style><path d="M51.508,31.537c0,0.471-0.385,0.856-0.855,0.856h-0.22c-0.472,0-0.856-0.385-0.856-0.856V26.56   c0-0.471,0.385-0.856,0.856-0.856h0.22c0.472,0,0.855,0.385,0.855,0.856V31.537z"></path></g><g><path d="M60.479,34.73c-0.232,0.409-0.758,0.552-1.166,0.317l-0.201-0.115c-0.408-0.234-0.551-0.76-0.316-1.168l2.473-4.317   c0.234-0.408,0.76-0.551,1.168-0.317l0.198,0.114c0.408,0.234,0.552,0.76,0.317,1.169L60.479,34.73z"></path></g><g><path d="M66.657,41.956c-0.406,0.238-0.933,0.099-1.171-0.308l-0.11-0.193c-0.237-0.407-0.099-0.935,0.31-1.172l4.293-2.506   c0.405-0.237,0.934-0.099,1.172,0.307l0.109,0.188c0.238,0.406,0.1,0.933-0.307,1.171L66.657,41.956z"></path></g><g><path d="M68.423,51.299c-0.472,0.004-0.858-0.378-0.86-0.85v-0.221c-0.002-0.471,0.381-0.859,0.853-0.862l4.967-0.037   c0.472-0.003,0.86,0.379,0.864,0.85l0.003,0.218c0.004,0.472-0.377,0.859-0.849,0.863L68.423,51.299z"></path></g><g><path d="M65.307,60.292c-0.41-0.229-0.558-0.755-0.326-1.164l0.109-0.194c0.23-0.41,0.758-0.558,1.167-0.326l4.335,2.438   c0.41,0.23,0.559,0.756,0.327,1.166L70.812,62.4c-0.23,0.41-0.756,0.559-1.166,0.328L65.307,60.292z"></path></g><g><path d="M58.128,66.529c-0.241-0.403-0.106-0.93,0.299-1.17l0.196-0.114c0.404-0.239,0.936-0.104,1.176,0.301l2.542,4.269   c0.241,0.403,0.108,0.934-0.296,1.176l-0.188,0.111c-0.404,0.242-0.933,0.109-1.174-0.295L58.128,66.529z"></path></g><g><path d="M48.803,68.373c-0.008-0.471,0.371-0.859,0.842-0.866l0.225-0.004c0.471-0.006,0.86,0.374,0.869,0.845l0.079,4.971   c0.009,0.471-0.37,0.863-0.841,0.871l-0.223,0.004c-0.471,0.01-0.861-0.367-0.869-0.838L48.803,68.373z"></path></g><g><path d="M39.786,65.337c0.228-0.413,0.75-0.563,1.162-0.335l0.194,0.107c0.412,0.229,0.562,0.752,0.335,1.164l-2.402,4.349   c-0.228,0.412-0.752,0.563-1.164,0.336l-0.188-0.104c-0.412-0.228-0.564-0.75-0.337-1.162L39.786,65.337z"></path></g><g><path d="M33.488,58.216c0.402-0.243,0.93-0.114,1.172,0.29l0.114,0.189c0.242,0.404,0.11,0.934-0.292,1.178l-4.25,2.576   c-0.402,0.244-0.931,0.113-1.175-0.289l-0.113-0.188c-0.244-0.404-0.114-0.934,0.289-1.178L33.488,58.216z"></path></g><g><path d="M31.565,48.901c0.471-0.012,0.863,0.364,0.871,0.834l0.003,0.216c0.008,0.471-0.37,0.865-0.841,0.877l-4.969,0.126   c-0.471,0.012-0.864-0.363-0.874-0.834l-0.004-0.218c-0.01-0.47,0.368-0.865,0.838-0.877L31.565,48.901z"></path></g><g><path d="M34.531,39.861c0.415,0.224,0.568,0.745,0.343,1.158l-0.105,0.192c-0.226,0.413-0.75,0.567-1.164,0.343l-4.37-2.366   c-0.414-0.224-0.57-0.747-0.346-1.161l0.101-0.187c0.224-0.414,0.746-0.57,1.16-0.346L34.531,39.861z"></path></g><g><path d="M41.597,33.501c0.248,0.401,0.122,0.93-0.279,1.176l-0.187,0.114c-0.401,0.247-0.932,0.12-1.18-0.281l-2.611-4.229   c-0.248-0.401-0.122-0.931,0.278-1.178l0.186-0.115c0.4-0.248,0.931-0.122,1.179,0.279L41.597,33.501z"></path></g><path d="M55.182,49.501c0,2.612-2.113,4.729-4.723,4.729c-0.808,0-1.569-0.205-2.233-0.558l-2.392,2.386l-1.609-1.604l2.312-2.312  c-0.508-0.757-0.808-1.662-0.808-2.641c0-2.606,2.12-4.723,4.729-4.723c1.043,0,2.007,0.336,2.783,0.911l12.448-11.45l0.615,0.612  L54.77,47.564C55.031,48.158,55.182,48.811,55.182,49.501z"></path><path d="M87.635,49.32c-0.046-3.537-0.613-7.004-1.613-10.308l6.153-4.819l-4.586-9.028l-7.555,2.163  c-2.086-2.78-4.562-5.273-7.362-7.388l2.139-7.531l-8.979-4.585l-4.848,6.154c-1.637-0.499-3.351-0.881-5.082-1.165  c-1.758-0.285-3.492-0.427-5.202-0.473L47.993,5l-9.978,1.566l-0.306,7.838c-3.304,1.141-6.439,2.758-9.29,4.75l-6.509-4.393  l-7.151,7.148l4.371,6.509c-1.97,2.826-3.585,5.938-4.723,9.312l-7.84,0.284l-1.569,9.977L12.34,50.7  c0.07,3.542,0.615,7.011,1.636,10.282l-6.175,4.853l4.609,8.999l7.531-2.143c2.114,2.783,4.585,5.252,7.362,7.369l-2.138,7.53  l9.026,4.582l4.82-6.153c1.664,0.502,3.35,0.881,5.108,1.168c1.734,0.281,3.469,0.422,5.2,0.446L52.007,95l9.999-1.564l0.287-7.844  c3.322-1.139,6.436-2.753,9.264-4.748l6.508,4.368l7.151-7.151l-4.37-6.457c1.993-2.832,3.584-5.939,4.75-9.311l7.812-0.288  l1.594-9.972L87.635,49.32z M78.468,54.523c-2.495,15.722-17.245,26.437-32.967,23.94c-15.728-2.468-26.462-17.239-23.969-32.966  c2.493-15.725,17.27-26.463,32.993-23.967C70.225,24.024,80.964,38.801,78.468,54.523z"></path></svg>
