<svg xmlns="http://www.w3.org/2000/svg" xmlns:xlink="http://www.w3.org/1999/xlink" version="1.1" x="0px" y="0px" viewBox="0 0 65 65" enable-background="new 0 0 65 65" xml:space="preserve" preserveAspectRatio="none" width="100%" height="100%" class="" fill="rgba(166, 166, 166, 1)"><g><path d="M22.4,18c-0.7,0-1.3,0.6-1.4,1.4c0.9,0.4,1.7,0.8,2.5,1.1c0.2-0.3,0.3-0.5,0.3-0.9C23.8,18.8,23.1,18,22.4,18z"></path><path d="M24.5,29.8l-1.3-7.7c-0.1,0-0.1-0.1-0.2-0.1c-0.2-0.1-0.4-0.2-0.6-0.3c-0.2-0.1-0.5-0.2-0.7-0.3c0,0,0,0,0,0l-1.4,8.3H24.5   z"></path><path d="M19,16.9c-0.1,0.7,0.2,1.3,0.6,1.7c0.3-1,1.1-1.8,2-2l-0.1-4.4l-1-0.3C19.7,13.4,19.2,15.1,19,16.9z"></path><path d="M19.6,20.6c0,0.2,0,0.4-0.1,0.5c0,0.2,0,0.3,0,0.5c0,0.6-0.1,1.1-0.1,1.7c0,0.6,0,1.2,0.1,1.8l0.6-3.5   C19.8,21.3,19.7,20.9,19.6,20.6z"></path><path d="M33,49.8L33,49.8c-0.3,0.2-0.6,0.2-0.9,0l-0.1,0l-4.9,5.5l5.3,9.2h0.1l5.3-9.2L33,49.8z"></path><path d="M45.5,21.6c0-0.2,0-0.3,0-0.5c0-0.2-0.1-0.4-0.1-0.6c-0.3,0.1-0.5,0.2-0.8,0.4c-0.3,0.1-0.5,0.2-0.8,0.4   c-0.3,0.1-0.6,0.3-0.9,0.4c-0.3,0.1-0.6,0.2-0.8,0.4c-0.3,0.1-0.5,0.2-0.8,0.3c-0.3,0.1-0.6,0.2-0.8,0.3c-0.3,0.1-0.5,0.2-0.8,0.3   c-0.3,0.1-0.6,0.2-0.8,0.3c-0.2,0.1-0.5,0.2-0.7,0.3c-0.3,0.1-0.5,0.2-0.8,0.3c-0.3,0.1-0.5,0.2-0.7,0.2c-0.3,0.1-0.5,0.2-0.8,0.2   c-0.3,0.1-0.5,0.1-0.8,0.2c-0.2,0.1-0.4,0.1-0.6,0.2c-0.5,0.1-1,0.2-1.4,0.3c-0.2,0-0.4,0.1-0.6,0.1c0,0,0,0,0,0   c-0.2,0-0.4,0-0.6-0.1c-0.4-0.1-0.9-0.2-1.3-0.3c-0.2,0-0.4-0.1-0.5-0.1c-0.3-0.1-0.6-0.1-0.8-0.2c-0.2-0.1-0.4-0.1-0.6-0.2   c-0.3-0.1-0.5-0.2-0.8-0.3c-0.2-0.1-0.4-0.1-0.6-0.2c-0.3-0.1-0.6-0.2-0.9-0.3c-0.2-0.1-0.4-0.2-0.6-0.2c-0.2-0.1-0.5-0.2-0.7-0.3   l1.3,7.7c0,0.2,0,0.5-0.2,0.6c-0.2,0.2-0.4,0.3-0.6,0.3h-4.9c0.6,2.1,1.4,4.1,2.4,5.9c2.6,4.7,6.1,7.4,9.5,7.4s6.9-2.7,9.5-7.4   c1.4-2.5,2.4-5.4,3-8.4c0.4-1.9,0.6-3.8,0.6-5.6C45.6,22.7,45.6,22.2,45.5,21.6z"></path><path d="M23.1,42.8l9.3,5.2c0.1,0,0.1,0.1,0.1,0.1c0,0,0.1-0.1,0.1-0.1l9.3-5.2v-2.3c0,0-0.1,0.1-0.1,0.1c-0.3,0.4-0.6,0.8-0.9,1.2   c-0.1,0.1-0.1,0.1-0.2,0.2c-0.3,0.4-0.6,0.7-1,1c0,0,0,0-0.1,0.1c-0.3,0.3-0.7,0.6-1,0.9c-0.1,0.1-0.1,0.1-0.2,0.2   c-0.3,0.3-0.7,0.5-1,0.7c-0.1,0-0.1,0.1-0.2,0.1c-0.4,0.2-0.7,0.4-1.1,0.6c0,0,0,0,0,0c-0.4,0.2-0.7,0.3-1.1,0.4   c-0.1,0-0.1,0-0.2,0.1c-0.4,0.1-0.7,0.2-1.1,0.3c-0.1,0-0.1,0-0.2,0c-0.4,0.1-0.8,0.1-1.1,0.1s-0.8,0-1.1-0.1c-0.1,0-0.1,0-0.2,0   c-0.4-0.1-0.7-0.1-1.1-0.3c-0.1,0-0.1,0-0.2-0.1c-0.4-0.1-0.7-0.3-1.1-0.4c0,0,0,0,0,0c-0.4-0.2-0.7-0.4-1.1-0.6   c-0.1,0-0.1-0.1-0.2-0.1c-0.3-0.2-0.7-0.5-1-0.7c-0.1-0.1-0.1-0.1-0.2-0.2c-0.3-0.3-0.7-0.6-1-0.9c0,0,0,0-0.1-0.1   c-0.3-0.3-0.6-0.7-0.9-1c-0.1-0.1-0.1-0.1-0.2-0.2c-0.3-0.4-0.6-0.7-0.9-1.2c0,0-0.1-0.1-0.1-0.1V42.8z"></path><polygon points="34.3,48.9 38.7,53.8 44.1,44.5 43,44  "></polygon><path d="M9.1,49.5c-2.6,1.2-4.7,3.6-5.7,6.5l-2.6,8.5h25.3L11.2,48.6L9.1,49.5z"></path><path d="M17.9,25.7c0-0.2,0-0.3,0-0.5c0-0.6-0.1-1.3-0.1-1.9c0-0.6,0-1.2,0.1-1.9c0-0.2,0-0.4,0.1-0.6c0-0.3,0.1-0.6,0.1-0.9   c-0.2-0.1-0.3-0.1-0.5-0.1c-0.1,0-0.2,0-0.3,0.1c-1,0.4-1.5,2.5-0.7,5c0.4,1.3,1,2.2,1.7,2.8c0,0,0-0.1,0-0.1   C18,27,18,26.3,17.9,25.7z"></path><path d="M47.1,20.8c0,0.2,0,0.4,0.1,0.6c0,0.6,0.1,1.2,0.1,1.9c0,0.6,0,1.3-0.1,1.9c0,0.2,0,0.3,0,0.5C47,26.4,47,27,46.9,27.6   c0,0,0,0,0,0.1c0.6-0.6,1.3-1.5,1.7-2.8c0.8-2.5,0.3-4.6-0.7-5c-0.3-0.1-0.6,0-0.8,0.1C47,20.2,47,20.5,47.1,20.8z"></path><polygon points="19.4,45.1 12.8,48 28.3,64.5 30.6,64.5 24.2,53.4  "></polygon><polygon points="30.7,48.9 22,44 20.9,44.5 26.3,53.8  "></polygon><path d="M32.1,15.5l-9-2.8l0.1,3.9c1.3,0.4,2.2,1.6,2.2,3c0,0.5-0.1,1-0.3,1.5c2.7,1.1,5.1,1.8,7.2,2.2c0.2,0,0.4,0,0.5,0   c3.7-0.8,7.7-2.2,12.3-4.4c0.7-0.3,1.1-1.2,1-2c-0.2-1.8-0.7-3.5-1.5-5.1l-11.7,3.7c-0.1,0-0.2,0.1-0.4,0.1   C32.4,15.6,32.3,15.5,32.1,15.5z"></path><path d="M33.8,7.2c0-0.3-0.5-0.7-1.3-0.7c-0.8,0-1.3,0.4-1.3,0.7S31.7,8,32.5,8C33.3,8,33.8,7.5,33.8,7.2z"></path><path d="M20.3,10.1l1.9,0.6l7.4-4c0.3-1,1.4-1.8,2.9-1.8c1.6,0,2.9,1,2.9,2.3s-1.3,2.3-2.9,2.3c-1.1,0-2.1-0.5-2.6-1.2l-5.6,3   l8.2,2.6l12.2-3.8c0,0,0,0,0,0l9.2-2.9L32.5,0.5L11.1,7.2L20.3,10.1C20.3,10.1,20.3,10.1,20.3,10.1z"></path><polygon points="52.2,48 45.6,45.1 40.8,53.4 34.4,64.5 36.7,64.5  "></polygon><path d="M55.9,49.5l-2.1-0.9L38.9,64.5h25.3L61.6,56C60.6,53.1,58.5,50.7,55.9,49.5z"></path></g></svg>
