<svg xmlns="http://www.w3.org/2000/svg" xmlns:xlink="http://www.w3.org/1999/xlink" version="1.1" x="0px" y="0px" viewBox="0 0 100 100" enable-background="new 0 0 100 100" xml:space="preserve" preserveAspectRatio="none" width="100%" height="100%" class="" fill="#A6A6A6"><g><path d="M7.715,43.141h84.56c3.165,0,3.644-1.483,1.065-3.317L79.234,29.809v-9.221c2.765,1.728,9.652-2.14,12.737-0.145v-7.63   c-4.32-2.393-8.293,1.819-12.737,0.085v-0.376c0.171-0.121,0.288-0.301,0.288-0.51c0-0.367-0.334-0.664-0.745-0.664   c-0.412,0-0.745,0.297-0.745,0.664c0,0.231,0.143,0.426,0.345,0.544V29.2L51.017,9.775c-0.434-0.305-1.131-0.307-1.563-0.004   L6.674,39.845C4.084,41.667,4.551,43.143,7.715,43.141z"></path><path d="M82.483,45.584H17.989c-0.786,0-1.434,0.643-1.434,1.435v35.631l-2.849-0.027c-0.608,0-1.1,0.492-1.1,1.1v5.633   c0,0.606,0.491,1.099,1.1,1.099h72.585c0.606,0,1.099-0.491,1.099-1.099v-5.633c-0.001-0.607-0.493-1.1-1.1-1.1l-2.373,0.027   V47.019C83.916,46.227,83.274,45.584,82.483,45.584z M49.999,48.36c1.92,0,3.477,1.557,3.477,3.478c0,1.92-1.558,3.477-3.477,3.477   c-1.92,0-3.477-1.558-3.477-3.477C46.522,49.918,48.079,48.36,49.999,48.36z M28.604,66.807c0,0.361-0.269,0.651-0.597,0.651   h-5.059c-0.332,0-0.596-0.292-0.596-0.651v-5.52c0-0.36,0.266-0.648,0.596-0.648h5.059c0.33,0,0.597,0.29,0.597,0.648V66.807z    M28.604,57.718c0,0.362-0.269,0.651-0.597,0.651h-5.059c-0.332,0-0.596-0.29-0.596-0.651v-5.52c0-0.357,0.266-0.648,0.596-0.648   h5.059c0.33,0,0.597,0.291,0.597,0.648V57.718z M37.751,66.807c0,0.361-0.266,0.651-0.604,0.651H32.09   c-0.329,0-0.593-0.292-0.593-0.651v-5.52c0-0.36,0.261-0.648,0.593-0.648h5.057c0.339,0,0.604,0.29,0.604,0.648V66.807z    M37.751,57.718c0,0.362-0.266,0.651-0.604,0.651H32.09c-0.329,0-0.593-0.29-0.593-0.651v-5.52c0-0.357,0.261-0.648,0.593-0.648   h5.057c0.339,0,0.604,0.291,0.604,0.648V57.718z M57.105,82.66c0,0.273-0.226,0.494-0.505,0.494H44.231   c-0.277,0-0.506-0.221-0.506-0.494V64.617c0-0.273,0.229-0.496,0.506-0.496h12.369c0.277,0,0.505,0.223,0.505,0.496V82.66z    M68.769,66.805c0,0.361-0.271,0.65-0.602,0.65h-5.058c-0.333,0-0.596-0.291-0.596-0.65v-5.518c0-0.36,0.267-0.648,0.596-0.648   h5.058c0.334,0,0.602,0.29,0.602,0.648V66.805z M68.769,57.719c0,0.361-0.271,0.652-0.602,0.652h-5.058   c-0.333,0-0.596-0.292-0.596-0.652v-5.518c0-0.357,0.267-0.648,0.596-0.648h5.058c0.334,0,0.602,0.289,0.602,0.648V57.719z    M77.91,66.805c0,0.361-0.266,0.65-0.591,0.65h-5.067c-0.329,0-0.593-0.291-0.593-0.65v-5.518c0-0.36,0.267-0.648,0.593-0.648   h5.067c0.328,0,0.591,0.29,0.591,0.648V66.805z M77.91,57.719c0,0.361-0.266,0.652-0.591,0.652h-5.067   c-0.329,0-0.593-0.292-0.593-0.652v-5.518c0-0.357,0.267-0.648,0.593-0.648h5.067c0.328,0,0.591,0.289,0.591,0.648V57.719z"></path></g></svg>
