<svg xmlns="http://www.w3.org/2000/svg" xmlns:xlink="http://www.w3.org/1999/xlink" version="1.1" x="0px" y="0px" viewBox="0 0 58 57.586" style="enable-background:new 0 0 58 57.586;" xml:space="preserve" preserveAspectRatio="none" width="100%" height="100%" class="" fill="#496772"><g><path d="M37.995,34.101c-0.415-0.332-0.937-0.515-1.469-0.515h-0.176c-1.296,0-2.351,1.055-2.351,2.351v13.826   c0.85,0.302,1.527,0.973,1.829,1.824H36v-6h9.649c1.296,0,2.351-1.055,2.351-2.351c0-0.719-0.321-1.388-0.882-1.836L37.995,34.101z   "></path><path d="M25.84,47.978L28,49.706v-0.12c0-3.593-2.107-6.764-5.283-8.197c0.654,0.635,1.181,1.41,1.513,2.295L25.84,47.978z"></path><path d="M13,27.586c0.552,0,1-0.449,1-1v-6c0-0.551-0.448-1-1-1H5c-0.552,0-1,0.449-1,1v6c0,0.551,0.448,1,1,1H13z M9.555,20.754   l3,2l-1.109,1.664l-3-2L9.555,20.754z M6.555,22.754l3,2l-1.109,1.664l-3-2L6.555,22.754z"></path><path d="M17,39.586c6.162,0,11.325-4.314,12.657-10.077c-0.212,0.048-0.43,0.077-0.657,0.077h-8c-1.654,0-3-1.346-3-3v-3h-2v3   c0,1.654-1.346,3-3,3H5c-0.226,0-0.445-0.03-0.657-0.077C5.675,35.272,10.838,39.586,17,39.586z M14,33.586h4.764   c0.998,0,1.896-0.555,2.342-1.447l1.789,0.895c-0.788,1.574-2.371,2.553-4.131,2.553H14V33.586z"></path><path d="M18.316,41.586c-2.38,0-4.316,1.937-4.316,4.316v0.328c0,0.72,0.183,1.435,0.527,2.067c0.824,1.51,1.851,2.864,3.031,4.047   l6.227-4.151l-1.428-3.808C21.729,42.711,20.105,41.586,18.316,41.586z"></path><path d="M21,19.586c-0.552,0-1,0.449-1,1v6c0,0.551,0.448,1,1,1h8c0.552,0,1-0.449,1-1v-6c0-0.551-0.448-1-1-1H21z M24.445,26.418   l-3-2l1.109-1.664l3,2L24.445,26.418z M27.445,24.418l-3-2l1.109-1.664l3,2L27.445,24.418z"></path><path d="M10,57.586h2v-2H8C8,56.688,8.897,57.586,10,57.586z"></path><path d="M0,23.586c0,1.103,0.897,2,2,2v-4C0.897,21.586,0,22.483,0,23.586z"></path><path d="M6.019,12.301C6.016,12.238,6,12.178,6,12.114C6,10.79,6.735,9.6,7.919,9.008l0.634-0.317l0.895,1.789l-0.634,0.317   C8.312,11.048,8,11.553,8,12.114c0,0.812,0.66,1.472,1.472,1.472h15.057c0.812,0,1.472-0.661,1.472-1.472   c0-0.561-0.312-1.065-0.813-1.316l-0.634-0.317l0.895-1.789l0.634,0.317C27.265,9.6,28,10.79,28,12.114   c0,0.064-0.016,0.124-0.019,0.188l1.504,0.602C31.013,13.514,32,14.972,32,16.617v2.969c0.238,0,0.468,0.03,0.694,0.07l0.222-0.554   C33.636,17.306,34,15.413,34,13.476c0-3.001-0.88-5.907-2.544-8.403l-0.897-1.345l-3.96,0.99l-2.897-3.864l-3.898,1.949L17,0   l-2.803,2.803l-3.898-1.949L7.401,4.717l-3.96-0.99L2.544,5.072C0.88,7.569,0,10.475,0,13.476c0,1.937,0.364,3.83,1.084,5.626   l0.222,0.554c0.226-0.04,0.456-0.07,0.694-0.07v-2.969c0-1.645,0.987-3.103,2.515-3.714L6.019,12.301z"></path><path d="M30,16.617c0-0.823-0.493-1.552-1.257-1.857L27.3,14.183c-0.634,0.847-1.635,1.403-2.771,1.403H9.472   c-1.136,0-2.138-0.556-2.771-1.403L5.257,14.76C4.493,15.065,4,15.794,4,16.617v1.153c0.314-0.112,0.648-0.184,1-0.184h8   c1.654,0,3,1.346,3,3v1h2v-1c0-1.654,1.346-3,3-3h8c0.352,0,0.686,0.072,1,0.184V16.617z"></path><path d="M32,25.586c1.103,0,2-0.897,2-2s-0.897-2-2-2V25.586z"></path><rect x="8" y="49.586" width="4" height="4"></rect><path d="M14,51.208v6.378h7.512C18.541,56.142,15.948,53.963,14,51.208z"></path><path d="M36,53.586h-2v-1c0-0.552-0.448-1-1-1h-0.172c-0.263,0-0.521,0.106-0.707,0.293l-2.047,2.047l-5.128-4.102l-5.851,3.901   c3.099,2.459,6.984,3.862,11.079,3.862H36c1.103,0,2-0.897,2-2S37.103,53.586,36,53.586z"></path><path d="M8,47.586h4V46.23v-0.328c0-0.107,0.011-0.211,0.016-0.316H10C8.897,45.586,8,46.483,8,47.586z"></path><path d="M12.617,40.929c-1.021,0.625-1.807,1.558-2.238,2.657h2.067c0.349-0.881,0.891-1.664,1.573-2.299   C13.543,41.19,13.076,41.07,12.617,40.929z"></path><rect x="46" y="31.586" width="2" height="2"></rect><rect x="50" y="31.586" width="2" height="2"></rect><rect x="54" y="31.586" width="2" height="2"></rect><path d="M58,10.586c0-4.962-4.037-9-9-9s-9,4.038-9,9c0,2.346,0.827,4.63,2.329,6.433L49,25.024l6.671-8.005   C57.173,15.216,58,12.932,58,10.586z M49,16.586c-3.314,0-6-2.686-6-6s2.686-6,6-6s6,2.686,6,6S52.314,16.586,49,16.586z"></path></g></svg>
