<svg xmlns="http://www.w3.org/2000/svg" xmlns:xlink="http://www.w3.org/1999/xlink" xmlns:serif="http://www.serif.com/" viewBox="0 0 32 32" version="1.1" xml:space="preserve" style="" x="0px" y="0px" fill-rule="evenodd" clip-rule="evenodd" stroke-linejoin="round" stroke-miterlimit="2" preserveAspectRatio="none" width="100%" height="100%" class="" fill="#496772"><g transform="matrix(1,0,0,1,-144,-288)"><path d="M155,309L155,312C155,312.796 155.316,313.559 155.879,314.121C156.441,314.684 157.204,315 158,315C158,315 166.586,315 166.586,315C166.586,315 169.293,317.707 169.293,317.707C169.578,317.992 170.007,318.078 170.38,317.925C170.753,317.772 170.997,317.41 171,317.006L171.013,315C171.013,315 172,315 172,315C172.796,315 173.559,314.684 174.121,314.121C174.684,313.559 175,312.796 175,312C175,308.537 175,301.463 175,298C175,297.204 174.684,296.441 174.121,295.879C173.559,295.316 172.796,295 172,295L165,295L165,292C165,291.204 164.684,290.441 164.121,289.879C163.559,289.316 162.796,289 162,289C158.537,289 151.463,289 148,289C147.204,289 146.441,289.316 145.879,289.879C145.316,290.441 145,291.204 145,292C145,295.463 145,302.537 145,306C145,306.796 145.316,307.559 145.879,308.121C146.441,308.684 147.204,309 148,309C148,309 149,309 149,309C149,309 149,311 149,311C149,311.404 149.244,311.769 149.617,311.924C149.991,312.079 150.421,311.993 150.707,311.707L153.414,309L155,309ZM164.277,307.001L167.728,307.013L169.072,310.371C169.276,310.884 169.859,311.133 170.371,310.928C170.884,310.724 171.133,310.141 170.928,309.629L166.928,299.629C166.777,299.249 166.409,299 166,299C165.591,299 165.223,299.249 165.072,299.629L161.072,309.629C160.867,310.141 161.116,310.724 161.629,310.928C162.141,311.133 162.724,310.884 162.928,310.371L164.277,307.001ZM165.076,305.004L166.927,305.01L166,302.693L165.076,305.004ZM156.457,297C155.957,298.103 155.327,299.25 154.524,300.246C154.201,299.855 153.906,299.441 153.636,299.018C153.339,298.552 152.721,298.416 152.255,298.712C151.79,299.009 151.653,299.628 151.95,300.093C152.298,300.639 152.682,301.167 153.106,301.663C152.204,302.368 151.142,302.865 149.888,303.006C149.339,303.068 148.944,303.564 149.006,304.112C149.068,304.661 149.564,305.056 150.112,304.994C151.843,304.798 153.296,304.068 154.51,303.048C155.44,303.811 156.51,304.409 157.735,304.746C158.267,304.892 158.818,304.579 158.964,304.047C159.111,303.515 158.797,302.964 158.265,302.817C157.383,302.575 156.606,302.155 155.922,301.622C157.273,300.005 158.233,298.062 158.892,296.361C159.091,295.846 158.835,295.267 158.32,295.067C158.215,295.027 158.107,295.005 158,295.001L155.548,295C155.548,295 155.548,294 155.548,294C155.548,293.448 155.1,293 154.548,293C153.996,293 153.548,293.448 153.548,294L153.548,295L150,295C149.448,295 149,295.448 149,296C149,296.552 149.448,297 150,297L156.457,297Z"></path></g></svg>
