<svg xmlns="http://www.w3.org/2000/svg" xmlns:xlink="http://www.w3.org/1999/xlink" version="1.1" x="0px" y="0px" viewBox="0 0 512 512" style="enable-background:new 0 0 512 512;" xml:space="preserve" preserveAspectRatio="none" width="100%" height="100%" class="" fill="rgba(166, 166, 166, 1)"><style type="text/css">
	.ladi_shape_class.st0{display:none;}
	.ladi_shape_class.st1{display:inline;fill:none;stroke:#000000;stroke-width:0.1;stroke-miterlimit:10;}
</style><g class="st0 ladi_shape_class"><rect class="st1 ladi_shape_class" width="512" height="512" style="fill: inherit !important;"></rect><line class="st1 ladi_shape_class" x1="0" y1="496" x2="512" y2="496" style="fill: inherit !important;"></line><line class="st1 ladi_shape_class" x1="0" y1="480" x2="512" y2="480" style="fill: inherit !important;"></line><line class="st1 ladi_shape_class" x1="0" y1="464" x2="512" y2="464" style="fill: inherit !important;"></line><line class="st1 ladi_shape_class" x1="0" y1="448" x2="512" y2="448" style="fill: inherit !important;"></line><line class="st1 ladi_shape_class" x1="0" y1="432" x2="512" y2="432" style="fill: inherit !important;"></line><line class="st1 ladi_shape_class" x1="0" y1="416" x2="512" y2="416" style="fill: inherit !important;"></line><line class="st1 ladi_shape_class" x1="0" y1="400" x2="512" y2="400" style="fill: inherit !important;"></line><line class="st1 ladi_shape_class" x1="0" y1="384" x2="512" y2="384" style="fill: inherit !important;"></line><line class="st1 ladi_shape_class" x1="0" y1="368" x2="512" y2="368" style="fill: inherit !important;"></line><line class="st1 ladi_shape_class" x1="0" y1="352" x2="512" y2="352" style="fill: inherit !important;"></line><line class="st1 ladi_shape_class" x1="0" y1="336" x2="512" y2="336" style="fill: inherit !important;"></line><line class="st1 ladi_shape_class" x1="0" y1="320" x2="512" y2="320" style="fill: inherit !important;"></line><line class="st1 ladi_shape_class" x1="0" y1="304" x2="512" y2="304" style="fill: inherit !important;"></line><line class="st1 ladi_shape_class" x1="0" y1="288" x2="512" y2="288" style="fill: inherit !important;"></line><line class="st1 ladi_shape_class" x1="0" y1="272" x2="512" y2="272" style="fill: inherit !important;"></line><line class="st1 ladi_shape_class" x1="0" y1="256" x2="512" y2="256" style="fill: inherit !important;"></line><line class="st1 ladi_shape_class" x1="0" y1="240" x2="512" y2="240" style="fill: inherit !important;"></line><line class="st1 ladi_shape_class" x1="0" y1="224" x2="512" y2="224" style="fill: inherit !important;"></line><line class="st1 ladi_shape_class" x1="0" y1="208" x2="512" y2="208" style="fill: inherit !important;"></line><line class="st1 ladi_shape_class" x1="0" y1="192" x2="512" y2="192" style="fill: inherit !important;"></line><line class="st1 ladi_shape_class" x1="0" y1="176" x2="512" y2="176" style="fill: inherit !important;"></line><line class="st1 ladi_shape_class" x1="0" y1="160" x2="512" y2="160" style="fill: inherit !important;"></line><line class="st1 ladi_shape_class" x1="0" y1="144" x2="512" y2="144" style="fill: inherit !important;"></line><line class="st1 ladi_shape_class" x1="0" y1="128" x2="512" y2="128" style="fill: inherit !important;"></line><line class="st1 ladi_shape_class" x1="0" y1="112" x2="512" y2="112" style="fill: inherit !important;"></line><line class="st1 ladi_shape_class" x1="0" y1="96" x2="512" y2="96" style="fill: inherit !important;"></line><line class="st1 ladi_shape_class" x1="0" y1="80" x2="512" y2="80" style="fill: inherit !important;"></line><line class="st1 ladi_shape_class" x1="0" y1="64" x2="512" y2="64" style="fill: inherit !important;"></line><line class="st1 ladi_shape_class" x1="0" y1="48" x2="512" y2="48" style="fill: inherit !important;"></line><line class="st1 ladi_shape_class" x1="0" y1="32" x2="512" y2="32" style="fill: inherit !important;"></line><line class="st1 ladi_shape_class" x1="0" y1="16" x2="512" y2="16" style="fill: inherit !important;"></line><line class="st1 ladi_shape_class" x1="496" y1="0" x2="496" y2="512" style="fill: inherit !important;"></line><line class="st1 ladi_shape_class" x1="480" y1="0" x2="480" y2="512" style="fill: inherit !important;"></line><line class="st1 ladi_shape_class" x1="464" y1="0" x2="464" y2="512" style="fill: inherit !important;"></line><line class="st1 ladi_shape_class" x1="448" y1="0" x2="448" y2="512" style="fill: inherit !important;"></line><line class="st1 ladi_shape_class" x1="432" y1="0" x2="432" y2="512" style="fill: inherit !important;"></line><line class="st1 ladi_shape_class" x1="416" y1="0" x2="416" y2="512" style="fill: inherit !important;"></line><line class="st1 ladi_shape_class" x1="400" y1="0" x2="400" y2="512" style="fill: inherit !important;"></line><line class="st1 ladi_shape_class" x1="384" y1="0" x2="384" y2="512" style="fill: inherit !important;"></line><line class="st1 ladi_shape_class" x1="368" y1="0" x2="368" y2="512" style="fill: inherit !important;"></line><line class="st1 ladi_shape_class" x1="352" y1="0" x2="352" y2="512" style="fill: inherit !important;"></line><line class="st1 ladi_shape_class" x1="336" y1="0" x2="336" y2="512" style="fill: inherit !important;"></line><line class="st1 ladi_shape_class" x1="320" y1="0" x2="320" y2="512" style="fill: inherit !important;"></line><line class="st1 ladi_shape_class" x1="304" y1="0" x2="304" y2="512" style="fill: inherit !important;"></line><line class="st1 ladi_shape_class" x1="288" y1="0" x2="288" y2="512" style="fill: inherit !important;"></line><line class="st1 ladi_shape_class" x1="272" y1="0" x2="272" y2="512" style="fill: inherit !important;"></line><line class="st1 ladi_shape_class" x1="256" y1="0" x2="256" y2="512" style="fill: inherit !important;"></line><line class="st1 ladi_shape_class" x1="240" y1="0" x2="240" y2="512" style="fill: inherit !important;"></line><line class="st1 ladi_shape_class" x1="224" y1="0" x2="224" y2="512" style="fill: inherit !important;"></line><line class="st1 ladi_shape_class" x1="208" y1="0" x2="208" y2="512" style="fill: inherit !important;"></line><line class="st1 ladi_shape_class" x1="192" y1="0" x2="192" y2="512" style="fill: inherit !important;"></line><line class="st1 ladi_shape_class" x1="176" y1="0" x2="176" y2="512" style="fill: inherit !important;"></line><line class="st1 ladi_shape_class" x1="160" y1="0" x2="160" y2="512" style="fill: inherit !important;"></line><line class="st1 ladi_shape_class" x1="144" y1="0" x2="144" y2="512" style="fill: inherit !important;"></line><line class="st1 ladi_shape_class" x1="128" y1="0" x2="128" y2="512" style="fill: inherit !important;"></line><line class="st1 ladi_shape_class" x1="112" y1="0" x2="112" y2="512" style="fill: inherit !important;"></line><line class="st1 ladi_shape_class" x1="96" y1="0" x2="96" y2="512" style="fill: inherit !important;"></line><line class="st1 ladi_shape_class" x1="80" y1="0" x2="80" y2="512" style="fill: inherit !important;"></line><line class="st1 ladi_shape_class" x1="64" y1="0" x2="64" y2="512" style="fill: inherit !important;"></line><line class="st1 ladi_shape_class" x1="48" y1="0" x2="48" y2="512" style="fill: inherit !important;"></line><line class="st1 ladi_shape_class" x1="32" y1="0" x2="32" y2="512" style="fill: inherit !important;"></line><line class="st1 ladi_shape_class" x1="16" y1="0" x2="16" y2="512" style="fill: inherit !important;"></line></g><path d="M256,6C117.9,6,6,117.9,6,256s111.9,250,250,250s250-111.9,250-250S394.1,6,256,6z M256.9,106c39.2,0,71.1,31.8,71.1,71.1  c0,30.9-19.6,57.2-47,67c13.8,3.1,26.4,8.9,37.6,16.7c-27.5,0.7-48.9,6.5-61.3,11.7c-12.5-5.3-34.3-11.1-62-11.7  c11.1-7.8,23.8-13.6,37.5-16.7c-27.4-9.8-47-36-47-67C185.8,137.8,217.7,106,256.9,106z M125.3,335.1c0-11,9-20,20-20s20,9,20,20  s-9,20-20,20S125.3,346.2,125.3,335.1z M320.9,390.1c-30.5-0.5-53.1,10.1-63.4,15.7c0,0,0,0.1,0,0.2l-0.2-0.1c0,0-0.1,0.1-0.2,0.1  c0,0,0-0.1,0-0.2c-10.4-5.6-33-16.2-63.4-15.7c-28.3,0.5-49.3,10.4-59.3,15.9c3.5-12.2,6.9-28.2,8.3-47.1c0.9,0.1,1.6,0.2,2.5,0.2  c13.2,0,24-10.7,24-24c0-13.2-10.7-24-24-24c-1.3,0-2.5,0.1-3.8,0.3c-1.7-13.6-4.3-25.2-7-34.7c12.1-5.2,32.3-12,58.1-12.5  c29.3-0.6,52.1,7,64.8,12.4c12.8-5.4,35.6-13,64.8-12.4c25.8,0.5,46,7.3,58.1,12.5c-2.6,9.6-5.4,21.4-7.1,35.2  c-2-0.6-4.1-0.9-6.2-0.9c-13.2,0-24,10.7-24,24c0,13.2,10.7,24,24,24c1.7,0,3.3-0.1,5-0.5c1.3,19.1,4.9,35.2,8.3,47.5  C370.2,400.5,349.2,390.6,320.9,390.1z M366.7,355.1c-11,0-20-9-20-20s9-20,20-20s20,9,20,20C386.7,346.2,377.7,355.1,366.7,355.1z"></path></svg>
