<svg xmlns="http://www.w3.org/2000/svg" width="628" height="628" viewBox="0 0 628 628" version="1.1"><path d="M 96.490 231 C 96.490 333.575, 96.607 375.537, 96.750 324.250 C 96.893 272.962, 96.893 189.037, 96.750 137.750 C 96.607 86.462, 96.490 128.425, 96.490 231 M 530.490 231 C 530.490 333.575, 530.607 375.537, 530.750 324.250 C 530.893 272.962, 530.893 189.037, 530.750 137.750 C 530.607 86.462, 530.490 128.425, 530.490 231 M 143.487 212.500 C 143.487 294.450, 143.605 327.827, 143.750 286.672 C 143.894 245.516, 143.894 178.466, 143.750 137.672 C 143.605 96.877, 143.487 130.550, 143.487 212.500 M 483.487 212.500 C 483.487 294.450, 483.605 327.827, 483.750 286.672 C 483.894 245.516, 483.894 178.466, 483.750 137.672 C 483.605 96.877, 483.487 130.550, 483.487 212.500 M 26.734 108.088 C 20.730 109.503, 15.722 112.493, 11.272 117.321 C 3.384 125.878, 4 105.722, 4 355.206 C 4 575.333, 4.024 578.119, 5.996 583.729 C 9.522 593.760, 17.669 599.939, 30 601.934 C 39.082 603.402, 587.918 603.402, 597 601.934 C 609.331 599.939, 617.478 593.760, 621.004 583.729 C 622.976 578.119, 623 575.333, 623 354.562 C 623 133.881, 622.975 131.008, 621.010 125.755 C 618.598 119.309, 612.443 112.983, 605.500 109.813 C 600.941 107.732, 598.757 107.499, 580.750 107.175 L 561 106.819 561 323.410 L 561 540 313.500 540 L 66 540 66 323.500 L 66 107 48.250 107.100 C 38.487 107.156, 28.806 107.600, 26.734 108.088" stroke="none" fill="#fbd404" fill-rule="evenodd"/><path d="M 174 184.505 L 174 348.505 243.753 418.253 L 313.505 488 383.253 418.247 L 453 348.495 453 184.498 L 453 20.502 383.252 90.250 L 313.504 159.998 243.752 90.252 L 174 20.505 174 184.505 M 97.247 231.552 L 97.500 417.105 180 452.628 C 225.375 472.166, 265.650 489.486, 269.500 491.116 L 276.500 494.080 209.753 427.290 L 143.006 360.500 142.753 212.119 L 142.500 63.739 120.006 54.869 C 107.634 49.991, 97.395 46, 97.253 46 C 97.111 46, 97.108 129.499, 97.247 231.552 M 506.500 54.960 L 484.500 63.733 484.247 212.116 L 483.994 360.500 417.247 427.290 L 350.500 494.080 357.500 491.116 C 361.350 489.486, 401.625 472.166, 447 452.628 L 529.500 417.105 529.753 231.552 C 529.892 129.499, 529.667 46.042, 529.253 46.093 C 528.839 46.145, 518.600 50.134, 506.500 54.960" stroke="none" fill="#2474bc" fill-rule="evenodd"/></svg>
