<svg xmlns="http://www.w3.org/2000/svg" data-name="Layer 1" viewBox="0 0 100 100" x="0px" y="0px" preserveAspectRatio="none" width="100%" height="100%" class=""><title>Artboard 41</title><g><path d="M30,82H62A12,12,0,0,0,74,70V50H66V70a4,4,0,0,1-4,4H30a4,4,0,0,1-4-4V38a4,4,0,0,1,4-4H50V26H30A12,12,0,0,0,18,38V70A12,12,0,0,0,30,82Z"></path><path d="M78,18H58v8H68.34L55.17,39.17l5.66,5.66L74,31.66V42h8V22A4,4,0,0,0,78,18Z"></path><circle cx="50" cy="50" r="4"></circle><circle cx="38" cy="62" r="4"></circle></g></svg>
