<svg xmlns="http://www.w3.org/2000/svg" viewBox="0 0 64 64" x="0px" y="0px" preserveAspectRatio="none" width="100%" height="100%" class="" fill="rgba(255, 255, 255, 1)"><path d="M19.1231 18H31.7337L39.5042 10.2295L39.9403 8.48507C40.0897 7.88759 39.9554 7.25461 39.5764 6.76918C39.1974 6.28374 38.6159 6 38 6H32.5714C31.7353 3.63049 29.4841 2 26.9141 2H25.0859C22.5159 2 20.2647 3.63049 19.4287 6L14 6C13.3841 6 12.8026 6.28374 12.4236 6.76917C12.0446 7.25461 11.9104 7.88759 12.0597 8.48507L13.3023 13.4552C13.97 16.1262 16.3699 18 19.1231 18Z"></path><path fill-rule="evenodd" clip-rule="evenodd" d="M27.7631 21.9706L28.7337 21H19.1231C14.9933 21 11.3935 18.1893 10.3919 14.1828L9.14933 9.21268C8.87875 8.13035 8.98042 7.00142 9.41742 6H8C4.68629 6 2 8.68629 2 12L2 56C2 59.3137 4.68629 62 8 62H44C47.3137 62 50 59.3137 50 56L50 28.2664L41.4929 36.7735C40.7888 37.4776 39.7892 37.7801 38.8275 37.6025C38.4725 38.579 37.6199 39.3412 36.5281 39.5339L33.8869 40H39C40.1046 40 41 40.8954 41 42C41 43.1046 40.1046 44 39 44H13C11.8954 44 11 43.1046 11 42C11 40.8954 11.8954 40 13 40H24.8674C24.7062 39.8755 24.552 39.7401 24.406 39.5941C23.2984 38.4866 22.8009 36.9083 23.0731 35.3658L23.3141 34H13C11.8954 34 11 33.1046 11 32C11 30.8954 11.8954 30 13 30H24.02L24.5969 26.7311C24.7396 25.9222 25.2078 25.2072 25.8921 24.753C26.2002 24.5485 26.5399 24.4049 26.8934 24.3254C26.8259 23.4611 27.1361 22.5976 27.7631 21.9706ZM13 50C11.8954 50 11 50.8954 11 52C11 53.1046 11.8954 54 13 54H27C28.1046 54 29 53.1046 29 52C29 50.8954 28.1046 50 27 50H13Z"></path><path d="M60.5878 13.4359L60.4097 13.614L50.3859 3.59035L50.5641 3.41222C52.447 1.52926 55.4999 1.52926 57.3829 3.41222L60.5878 6.61713C62.4707 8.50009 62.4707 11.553 60.5878 13.4359Z"></path><path d="M29.8844 24.0919L47.8404 6.13594L51.6929 9.98843L35.9824 25.4819L29.8844 24.0919Z"></path><path d="M26.0274 35.8872L27.5512 27.2524L34.9339 28.9353L36.0067 36.5795L28.1128 37.9726C27.5344 38.0747 26.9426 37.8881 26.5272 37.4728C26.1119 37.0574 25.9253 36.4656 26.0274 35.8872Z"></path><path d="M39.3715 34.6522L57.8641 16.1596L54.2385 12.5341L38.4523 28.1022L39.3715 34.6522Z"></path></svg>
