<svg xmlns="http://www.w3.org/2000/svg" xmlns:xlink="http://www.w3.org/1999/xlink" version="1.1" x="0px" y="0px" viewBox="0 0 108 96" enable-background="new 0 0 108 96" xml:space="preserve" preserveAspectRatio="none" width="100%" height="100%" class="" fill="rgba(255, 255, 255, 1)"><path d="M26,34H2c-1.104,0-2,0.896-2,2s0.896,2,2,2h24c1.104,0,2-0.896,2-2S27.1,34,26,34z"></path><path d="M22,46H2c-1.104,0-2,0.896-2,2c0,1.104,0.896,2,2,2h20c1.104,0,2-0.896,2-2C24,46.896,23.1,46,22,46z"></path><path d="M18,58H2c-1.104,0-2,0.9-2,2s0.896,2,2,2h16c1.104,0,2-0.9,2-2S19.1,58,18,58z"></path><path d="M106.716,21.044C105.132,19.08,102.74,18,100,18H48c-5.304,0-10.52,4.22-11.632,9.404l-8.648,40.36  c-0.576,2.68-0.02,5.24,1.564,7.196C30.868,76.92,33.252,78,36,78h52c5.305,0,10.523-4.22,11.632-9.408l8.647-40.356  C108.848,25.56,108.305,23,106.716,21.044z M97.412,33.416L78.208,52.628L86.84,62.5c0.732,0.832,0.648,2.092-0.188,2.82  c-0.385,0.332-0.844,0.496-1.313,0.496c-0.564,0-1.107-0.232-1.508-0.685l-8.46-9.668l-0.017,0.017  c-1.812,1.812-4.08,2.783-6.436,2.783c-0.252,0-0.508-0.016-0.764-0.039c-2.633-0.236-4.977-1.641-6.596-3.961l-1.137-1.623  l-16.42,13.131c-0.368,0.297-0.812,0.433-1.248,0.433c-0.588,0-1.168-0.252-1.564-0.752c-0.688-0.864-0.548-2.12,0.312-2.808  l16.62-13.293l-11.46-16.368c-0.64-0.9-0.42-2.148,0.488-2.78c0.9-0.632,2.152-0.412,2.784,0.492l14.896,21.272  c0.928,1.341,2.248,2.148,3.672,2.269c1.428,0.132,2.868-0.428,4.023-1.584l1.533-1.532c0.031-0.032,0.051-0.08,0.084-0.108  c0.016-0.016,0.039-0.016,0.063-0.031L94.6,30.588c0.78-0.78,2.057-0.78,2.828,0C98.191,31.376,98.191,32.632,97.412,33.416z"></path></svg>
