<svg xmlns="http://www.w3.org/2000/svg" xmlns:xlink="http://www.w3.org/1999/xlink" version="1.1" x="0px" y="0px" viewBox="0 0 100 100" enable-background="new 0 0 100 100" xml:space="preserve" preserveAspectRatio="none" width="100%" height="100%" class="" fill="rgba(115, 115, 115, 1)"><g><path d="M36.828,83.842c0-0.928,0.708-1.674,1.592-1.674h4.024c0.875,0,1.584,0.746,1.584,1.674v4.235   c0,0.926-0.709,1.679-1.584,1.679H38.42c-0.884,0-1.592-0.753-1.592-1.679V83.842z"></path></g><path d="M60.455,32.668V75.92c0,1.382-1.069,2.508-2.379,2.508H22.936c-1.315,0-2.377-1.126-2.377-2.508V27.021  c0-1.391,1.062-2.514,2.377-2.514h29.276c-0.791-1.647-1.326-3.439-1.555-5.322H20.198c-2.626,0-4.759,2.238-4.759,5.01v66.485  c0,2.767,2.133,5.016,4.759,5.016H60.8c2.641,0,4.766-2.249,4.766-5.016V34.144C63.763,33.916,62.041,33.412,60.455,32.668z   M84.939,18.141c-0.759,8.031-7.185,15.051-15.161,16.013v56.527c0,5.086-4.023,9.228-8.979,9.228H20.198  c-4.946,0-8.97-4.142-8.97-9.228V24.195c0-5.084,4.023-9.223,8.97-9.223h30.466C51.713,6.494,58.958-0.092,67.71-0.092  c1.629,0,2.855,0.174,4.283,0.582l0.601,3.404c-1.546-0.532-3.312-0.908-4.866-0.908c-7.796,0-14.116,6.32-14.116,14.117  c0,7.795,6.32,14.115,14.116,14.115c6.709,0,12.324-4.681,13.761-10.955L84.939,18.141z"></path><path d="M67.435,28.973c0.203,0,0.402-0.071,0.562-0.213c0.315-0.277,0.378-0.744,0.149-1.095c-1.41-2.18-1.49-5.437-0.198-8.107  c1.527-3.161,4.7-5.228,9.001-5.895l-0.69,3.979c-0.059,0.334,0.088,0.672,0.375,0.855c0.14,0.092,0.3,0.137,0.458,0.137  c0.166,0,0.332-0.048,0.475-0.144l11.851-7.977c0.237-0.157,0.376-0.423,0.374-0.706c0-0.283-0.143-0.549-0.38-0.704L77.467,1.214  c-0.141-0.093-0.303-0.14-0.467-0.14c-0.166,0-0.332,0.049-0.476,0.146c-0.285,0.193-0.424,0.539-0.354,0.876l0.812,3.84  c-6.559,0.265-12.627,4.263-14.596,9.704c-0.974,2.693-1.685,7.979,4.506,13.137C67.051,28.908,67.243,28.973,67.435,28.973"></path></svg>
