<svg xmlns="http://www.w3.org/2000/svg" xmlns:xlink="http://www.w3.org/1999/xlink" version="1.1" x="0px" y="0px" viewBox="0 0 100 100" enable-background="new 0 0 100 100" xml:space="preserve" preserveAspectRatio="none" width="100%" height="100%" class=""><g><circle cx="50.465" cy="52.275" r="30.859"></circle></g><path d="M91.378,42h-0.081C87.519,23,70.648,8.392,50.465,8.392C30.283,8.392,13.412,23,9.634,42H9.622C7.346,42,5,43.357,5,45.633  v16.031C5,63.941,7.346,66,9.622,66h3.893C15.792,66,18,63.941,18,61.664V45.633c0-1.699-1.209-3.156-2.677-3.788  c3.532-16.25,17.937-28.467,35.233-28.467c17.307,0,31.583,12.233,35.103,28.498C84.226,42.522,83,43.959,83,45.633v16.031  c0,2.199,2,3.991,4,4.111v3.21L60.271,88.08l2.199,2.788L91,70.751V66h0.378C93.654,66,95,63.941,95,61.664V45.633  C95,43.357,93.654,42,91.378,42z"></path></svg>
