<svg xmlns="http://www.w3.org/2000/svg" viewBox="0 0 64 64" x="0px" y="0px" preserveAspectRatio="none" width="100%" height="100%" class="" fill="rgba(255, 255, 255, 1)"><title>mobile banking</title><g data-name="Layer 36"><path d="M25.54688,37.2136V34.03815H23.19359a.76957.76957,0,0,1,0-1.53914h2.35329V29.9338H23.19359a.76957.76957,0,1,1,0-1.53913h2.35329V25.83045H14.9859a.76957.76957,0,1,1,0-1.53913h10.561V23.04078a2.81677,2.81677,0,0,1,.336-1.31468H19.08924a.76957.76957,0,0,1,0-1.53913H43.074V6.0913A3.59566,3.59566,0,0,0,39.48272,2.5h-29.5A3.59566,3.59566,0,0,0,6.39141,6.0913V57.9087A3.59566,3.59566,0,0,0,9.98272,61.5h29.5a3.59566,3.59566,0,0,0,3.5913-3.5913V40.06741H28.40068A2.85722,2.85722,0,0,1,25.54688,37.2136ZM21.01315,5.06522h7.43913a.76957.76957,0,1,1,0,1.53913H21.01315a.76957.76957,0,0,1,0-1.53913ZM14.9874,20.19a.76815.76815,0,0,1,.76956.76956.76957.76957,0,1,1-1.53913,0A.76157.76157,0,0,1,14.9874,20.19Zm-3.59131,1.53913a.76957.76957,0,1,1,.76957-.76957A.76911.76911,0,0,1,11.39609,21.72911ZM19.57373,30.03a.76957.76957,0,1,1,0-1.53913.76957.76957,0,0,1,0,1.53913Zm26.75141.0972A3.97785,3.97785,0,1,1,42.347,26.1491,3.98183,3.98183,0,0,1,46.32514,30.12719Zm9.96877-8.40109H28.40068A1.3164,1.3164,0,0,0,27.086,23.04078V37.2136a1.3164,1.3164,0,0,0,1.31467,1.31468H56.29391a1.31641,1.31641,0,0,0,1.31468-1.31468V23.04078A1.31641,1.31641,0,0,0,56.29391,21.7261ZM42.347,35.64341a5.51672,5.51672,0,1,1,5.51723-5.51622A5.52318,5.52318,0,0,1,42.347,35.64341Z"></path></g></svg>
