<svg xmlns="http://www.w3.org/2000/svg" xmlns:xlink="http://www.w3.org/1999/xlink" version="1.1" x="0px" y="0px" viewBox="0 0 100 100" enable-background="new 0 0 100 100" xml:space="preserve" preserveAspectRatio="none" width="100%" height="100%" class="" fill="rgba(217, 217, 217, 1)"><g><path d="M50,0C22.43,0,0,22.43,0,50s22.43,50,50,50s50-22.43,50-50S77.57,0,50,0z M84.24,21.362   c-0.515,1.485-2.57,2.992-5.862,4.32c-1.31-3.139-2.878-6.08-4.697-8.756c-2.444-3.596-5.225-6.549-8.239-8.825   C72.823,10.823,79.283,15.441,84.24,21.362z M75.85,26.591c-3.593,1.146-8.194,2.094-13.565,2.679   c-0.521-4.174-1.2-8.044-2.03-11.468c-1.276-5.265-2.835-9.153-4.657-11.675C64.148,8.473,71.439,16.082,75.85,26.591z M50,5.357   c4.187,0,7.814,9.814,9.613,24.165c-3.01,0.249-6.223,0.389-9.613,0.389s-6.604-0.14-9.613-0.389   C42.186,15.172,45.813,5.357,50,5.357z M39.746,17.802c-0.83,3.424-1.509,7.294-2.03,11.468c-5.371-0.585-9.973-1.532-13.565-2.679   c4.41-10.509,11.7-18.118,20.252-20.464C42.581,8.648,41.022,12.537,39.746,17.802z M34.559,8.102   c-3.015,2.276-5.795,5.229-8.24,8.825c-1.82,2.676-3.388,5.617-4.697,8.756c-3.292-1.328-5.348-2.835-5.862-4.32   C20.717,15.441,27.177,10.823,34.559,8.102z M19.933,82.998c2.347,0.862,5.033,1.6,7.943,2.206   c2.046,2.646,4.289,4.888,6.683,6.694C29.104,89.887,24.149,86.841,19.933,82.998z M32.011,85.957   c2.923,0.462,5.991,0.807,9.103,1.034c0.975,2.905,2.073,5.199,3.289,6.882C39.83,92.618,35.617,89.863,32.011,85.957z M50,94.643   c-2.217,0-4.277-2.756-5.994-7.476c2.004,0.099,4.011,0.149,5.994,0.149c2.04,0,4.038-0.048,5.988-0.137   C54.273,91.892,52.215,94.643,50,94.643z M58.877,87.018c3.192-0.221,6.224-0.561,9.057-1.003   c-3.593,3.874-7.786,6.61-12.337,7.858C56.809,92.195,57.904,89.912,58.877,87.018z M65.441,91.898   c2.377-1.794,4.603-4.017,6.638-6.638c2.967-0.621,5.641-1.366,7.944-2.221C75.817,86.863,70.878,89.894,65.441,91.898z    M86.366,75.877l-0.042-0.022c-1.185,2.19-5.433,4.417-11.906,6.082c3.898-6.118,6.561-13.489,7.806-21.463   c0.376-0.105,0.756-0.209,1.122-0.318c4.854-1.443,8.538-3.143,10.997-5.042C93.466,62.798,90.638,69.885,86.366,75.877z    M89.301,55.025l-3.062,1.994c-0.278,0.182-4.121,2.656-9.624,4.793c0.944-0.193,1.876-0.394,2.776-0.608   c-1.479,8.421-4.591,15.874-8.806,21.597c-3.236,0.638-6.884,1.141-10.868,1.458c0.183-0.664,0.362-1.346,0.536-2.061   c1.203-4.964,2.089-10.863,2.63-17.279c-0.438,0.019-0.876,0.03-1.315,0.03h-1.38c-0.662,7.683-1.812,14.412-3.308,19.502   c-2.206,0.121-4.502,0.188-6.881,0.188c-2.384,0-4.677-0.064-6.88-0.183c-1.496-5.09-2.646-11.82-3.308-19.506h-2.692   c0.542,6.404,1.426,12.293,2.627,17.248c0.174,0.719,0.355,1.404,0.54,2.072c-3.987-0.31-7.622-0.803-10.842-1.429   c-3.638-4.927-6.449-11.146-8.111-18.159c-1-0.079-1.933-0.177-2.805-0.293c1.432,6.488,3.821,12.486,7.088,17.599   c-6.793-1.73-11.104-4.092-12.074-6.413l-0.095,0.039c-4.167-5.936-6.926-12.929-7.79-20.501c0.682,0.526,1.466,1.035,2.335,1.53   c0.066-0.99,0.366-1.865,0.833-2.629c-1.612-0.972-2.777-1.98-3.441-2.993C5.375,50.68,5.357,50.343,5.357,50   c0-9.867,3.208-18.983,8.63-26.373c1.255,1.748,3.596,3.253,6.679,4.503c-2.162,5.965-3.409,12.565-3.651,19.428   c0.798-0.45,1.708-0.851,2.738-1.16c0.34-6.23,1.54-12.103,3.439-17.35c4.035,1.311,8.961,2.266,14.221,2.852   c-0.457,4.327-0.746,8.941-0.857,13.705c0.933,0.005,1.833,0.013,2.677,0.02c0.112-4.743,0.404-9.268,0.848-13.459   c3.26,0.281,6.608,0.424,9.919,0.424s6.659-0.143,9.919-0.424c0.212,2.006,0.39,4.09,0.529,6.236h2.672   c-0.144-2.218-0.312-4.402-0.534-6.502c5.261-0.586,10.187-1.541,14.222-2.852c1.115,3.08,1.99,6.376,2.595,9.831h2.722   c-0.624-3.743-1.558-7.349-2.79-10.749c3.084-1.25,5.424-2.755,6.68-4.503c5.421,7.39,8.629,16.506,8.629,26.373   c0,0.343-0.018,0.68-0.025,1.021C93.718,52.392,91.9,53.755,89.301,55.025z"></path><path d="M28.987,60.897c13.854,0,25.381-0.002,32.58-0.003c11.298,0,22.46-7.27,22.46-7.27l-3.605-0.816   l3.655-9.877h-5.079l-9.3,8.529L60.4,50.558l4.64-8.102h-6.508l-13.867,7.287c0,0-16.292-0.272-21.398,0.107   c-5.373,0.397-7.414,4.236-7.414,4.236s-3.827,0.809-3.828,2.965C12.024,59.207,16.598,60.896,28.987,60.897z"></path></g></svg>
